3.0Hz3min_grf.mot
version=1
nRows=30
nColumns 19
inDegrees=yes
endheader
time	1_ground_force_vx	1_ground_force_vy	1_ground_force_vz	1_ground_force_px	1_ground_force_py	1_ground_force_pz	1_ground_torque_x	1_ground_torque_y	1_ground_torque_z	2_ground_force_vx	2_ground_force_vy	2_ground_force_vz	2_ground_force_px	2_ground_force_py	2_ground_force_pz	2_ground_torque_x	2_ground_torque_y	2_ground_torque_z
            1.253500	           -8.398118	          345.632407	          -13.584232	           -0.171878	            0.006201	           -0.397680	           -0.029582	            1.217475	           -0.047850	           -3.170985	          324.879306	           39.078473	           -0.176008	            0.005963	           -0.729775	           -0.001550	            0.158849	            0.019107
            1.254000	           -8.212800	          340.583234	          -13.193627	           -0.171784	            0.006202	           -0.397750	           -0.027432	            1.137613	           -0.044069	           -3.437627	          320.828352	           38.688713	           -0.176054	            0.005963	           -0.729985	           -0.001462	            0.136405	            0.016449
            1.254500	           -7.845021	          335.535670	          -13.170324	           -0.171416	            0.006204	           -0.398157	           -0.028335	            1.211917	           -0.047570	           -3.516246	          316.594268	           38.204359	           -0.176266	            0.005965	           -0.730616	           -0.001856	            0.167082	            0.020162
            1.255000	           -7.568215	          331.568109	          -12.775309	           -0.171770	            0.006201	           -0.397662	           -0.028500	            1.248589	           -0.048108	           -3.355923	          311.071650	           37.809163	           -0.175761	            0.005964	           -0.729873	           -0.001943	            0.180095	            0.021890
            1.255500	           -7.612909	          326.520268	          -12.705126	           -0.171685	            0.006202	           -0.397843	           -0.029247	            1.254395	           -0.048809	           -3.433877	          306.653425	           37.324152	           -0.175612	            0.005964	           -0.729663	           -0.001683	            0.150322	            0.018296
            1.256000	           -7.428109	          320.570916	          -12.593522	           -0.171395	            0.006205	           -0.398422	           -0.029034	            1.252993	           -0.049223	           -3.562710	          303.340272	           36.749248	           -0.175982	            0.005965	           -0.730322	           -0.001611	            0.137131	            0.016613
            1.256500	           -7.518064	          317.324150	          -12.148648	           -0.171380	            0.006202	           -0.397691	           -0.027545	            1.162608	           -0.044510	           -3.356928	          298.186667	           36.214561	           -0.175598	            0.005966	           -0.730173	           -0.002112	            0.187597	            0.022783
            1.257000	           -7.516801	          312.276121	          -12.032724	           -0.171297	            0.006203	           -0.398103	           -0.024974	            1.037530	           -0.039978	           -3.389320	          294.136558	           35.824701	           -0.175394	            0.005967	           -0.730472	           -0.002155	            0.187007	            0.022777
            1.257500	           -7.331582	          307.767776	          -11.639799	           -0.171472	            0.006200	           -0.397326	           -0.023056	            0.967859	           -0.036605	           -3.374966	          290.087456	           35.200180	           -0.175309	            0.005968	           -0.730520	           -0.002025	            0.174016	            0.021116
            1.258000	           -6.963674	          303.260584	          -11.522466	           -0.171542	            0.006202	           -0.397689	           -0.024217	            1.054638	           -0.040071	           -3.497633	          285.115469	           35.041715	           -0.174867	            0.005968	           -0.730106	           -0.002759	            0.224892	            0.027640
            1.258500	           -7.099158	          297.670583	          -11.133383	           -0.171153	            0.006204	           -0.398170	           -0.026641	            1.117065	           -0.041780	           -3.388811	          280.881727	           34.651138	           -0.174923	            0.005969	           -0.730416	           -0.002191	            0.181585	            0.022401
            1.259000	           -7.051827	          293.883606	          -10.828738	           -0.171119	            0.006202	           -0.397790	           -0.025720	            1.071896	           -0.039496	           -3.324887	          276.095728	           34.164754	           -0.174829	            0.005968	           -0.730190	           -0.002531	            0.210188	            0.026009
            1.259500	           -6.958390	          288.654573	          -10.530390	           -0.170766	            0.006203	           -0.397982	           -0.024944	            1.034770	           -0.037749	           -3.264286	          272.230434	           33.681655	           -0.174846	            0.005967	           -0.729963	           -0.002592	            0.216141	            0.026742
            1.260000	           -6.545241	          284.328670	          -10.641677	           -0.170673	            0.006203	           -0.397987	           -0.023954	            1.040582	           -0.038946	           -3.346851	          269.100920	           33.295100	           -0.175023	            0.005969	           -0.730571	           -0.002804	            0.225489	            0.027899
            1.260500	           -6.680941	          280.541068	          -10.199009	           -0.170803	            0.006201	           -0.397428	           -0.022260	            0.934713	           -0.033981	           -3.377935	          264.682698	           32.856997	           -0.174503	            0.005971	           -0.730483	           -0.003087	            0.241865	            0.030025
            1.261000	           -6.450559	          274.772414	          -10.178456	           -0.170816	            0.006202	           -0.397743	           -0.022515	            0.959080	           -0.035527	           -3.081632	          260.448963	           32.654053	           -0.174878	            0.005969	           -0.730463	           -0.003144	            0.265749	            0.033319
            1.261500	           -6.586810	          270.264990	          -10.014015	           -0.170708	            0.006202	           -0.397867	           -0.022000	            0.902705	           -0.033448	           -3.300177	          256.030566	           32.075246	           -0.174615	            0.005971	           -0.730663	           -0.003177	            0.246451	            0.030875
            1.262000	           -6.264778	          265.938086	           -9.895795	           -0.170190	            0.006204	           -0.398195	           -0.023018	            0.977109	           -0.036359	           -3.237562	          251.612682	           31.637104	           -0.174116	            0.005971	           -0.730271	           -0.002883	            0.224071	            0.028174
            1.262500	           -6.079852	          261.790604	           -9.593037	           -0.170369	            0.006200	           -0.397400	           -0.024358	            1.048825	           -0.038433	           -2.989581	          247.748261	           31.106997	           -0.174352	            0.005970	           -0.730172	           -0.002764	            0.229075	            0.028762
            1.263000	           -6.216217	          257.283376	           -9.474452	           -0.170256	            0.006203	           -0.398038	           -0.022720	            0.940354	           -0.034629	           -3.161859	          243.513505	           30.716539	           -0.174059	            0.005972	           -0.730534	           -0.003415	            0.262984	            0.033173
            1.263500	           -6.031746	          253.136681	           -9.355118	           -0.170093	            0.006202	           -0.397825	           -0.020584	            0.863876	           -0.031926	           -3.006770	          239.463403	           30.514312	           -0.173810	            0.005970	           -0.729732	           -0.003928	            0.312816	            0.039862
            1.264000	           -6.076443	          249.350306	           -9.187812	           -0.170204	            0.006202	           -0.397772	           -0.019859	            0.814931	           -0.030028	           -3.088171	          235.966947	           29.751018	           -0.173881	            0.005972	           -0.730259	           -0.003605	            0.275457	            0.034730
            1.264500	           -5.892266	          245.564566	           -9.158644	           -0.169886	            0.006201	           -0.397438	           -0.019333	            0.805706	           -0.030050	           -3.074296	          232.100479	           29.549507	           -0.173418	            0.005975	           -0.730642	           -0.004169	            0.314721	            0.040068
            1.265000	           -5.936912	          240.877060	           -9.041059	           -0.169672	            0.006202	           -0.397690	           -0.019823	            0.804292	           -0.030188	           -3.060504	          228.234711	           29.160284	           -0.174219	            0.005972	           -0.730459	           -0.003752	            0.279801	            0.035749
            1.265500	           -5.385632	          236.369934	           -8.924181	           -0.169683	            0.006203	           -0.398007	           -0.021750	            0.954585	           -0.036040	           -3.092191	          224.000127	           28.863623	           -0.173797	            0.005974	           -0.730604	           -0.003863	            0.279823	            0.036057
            1.266000	           -5.430118	          233.304033	           -8.616216	           -0.169755	            0.006201	           -0.397405	           -0.020696	            0.889211	           -0.032840	           -2.754416	          221.240281	           28.525131	           -0.173494	            0.005975	           -0.730589	           -0.003517	            0.282484	            0.036421
            1.266500	           -5.428562	          227.895080	           -8.410126	           -0.169734	            0.006204	           -0.398266	           -0.020753	            0.871245	           -0.032152	           -2.925988	          216.821049	           28.227872	           -0.173773	            0.005973	           -0.730394	           -0.003752	            0.278020	            0.036195
            1.267000	           -5.198036	          223.207430	           -8.247368	           -0.168538	            0.006204	           -0.398199	           -0.018278	            0.784863	           -0.029000	           -2.818455	          212.955253	           27.932466	           -0.173537	            0.005975	           -0.730637	           -0.004287	            0.323946	            0.042491
            1.267500	           -5.197297	          219.782185	           -8.216198	           -0.168727	            0.006204	           -0.398196	           -0.018016	            0.761855	           -0.028481	           -2.994056	          209.641261	           27.545294	           -0.173612	            0.005975	           -0.730892	           -0.004955	            0.346976	            0.045590
            1.268000	           -5.012860	          215.815786	           -8.096091	           -0.168648	            0.006205	           -0.398440	           -0.016105	            0.693360	           -0.026011	           -3.027778	          205.959464	           27.156747	           -0.173218	            0.005975	           -0.730333	           -0.005436	            0.369785	            0.048758
